<?xml version="1.0" encoding="iso-8859-1"?>
<!-- Generator: Adobe Illustrator 19.0.0, SVG Export Plug-In . SVG Version: 6.00 Build 0)  -->
<svg version="1.1" id="Layer_1" xmlns="http://www.w3.org/2000/svg" xmlns:xlink="http://www.w3.org/1999/xlink" x="0px" y="0px"
	 viewBox="0 0 512 512" style="enable-background:new 0 0 512 512;" xml:space="preserve">
<circle style="fill:#ABCE2E;" cx="255.996" cy="255.996" r="255.996"/>
<path style="fill:#2D9627;" d="M512,255.999c0-3.973-0.103-7.921-0.283-11.85L374.709,107.141
	c-21.84-24.328-61.421-46.027-118.708-46.027c-92.502,0-138.861,56.572-138.861,89.445c0,14.044,0,44.137,0,74.001
	c-1.487-0.299-3.023-0.459-4.594-0.459l0,0c-12.875,0-23.409,10.533-23.409,23.409v47.105c0,8.611,4.716,16.169,11.688,20.234
	l17.792,18.258c4.696,31.924,20.452,60.364,43.21,81.302l38.063,38.245v53.161c18.06,4.038,36.834,6.185,56.111,6.185
	C397.385,512,512,397.385,512,255.999z"/>
<path style="fill:#FFC473;" d="M199.888,413.716v92.099c18.06,4.038,36.834,6.185,56.111,6.185s38.051-2.145,56.111-6.185v-92.099
	H199.888z"/>
<path style="fill:#FFB74D;" d="M255.999,413.716V512c19.278,0,38.051-2.145,56.111-6.185v-92.099H255.999z"/>
<path style="fill:#FFC473;" d="M399.456,224.101L399.456,224.101c-1.576,0-3.115,0.16-4.605,0.461v-18.96
	c0-75.781-62.003-109.499-137.785-109.499h-2.142c-75.781,0-137.785,33.717-137.785,109.499v18.958
	c-1.487-0.299-3.023-0.459-4.594-0.459l0,0c-12.875,0-23.409,10.533-23.409,23.409v47.105c0,12.875,10.535,23.409,23.409,23.409l0,0
	c1.6,0,3.163-0.163,4.675-0.473c2.371,73.743,63.412,133.334,137.704,133.334h2.142c74.292,0,135.334-59.593,137.704-133.336
	c1.515,0.311,3.081,0.474,4.684,0.474l0,0c12.875,0,23.409-10.533,23.409-23.408v-47.105
	C422.864,234.635,412.33,224.101,399.456,224.101z"/>
<path style="fill:#FFB74D;" d="M399.456,224.101L399.456,224.101c-1.576,0-3.115,0.16-4.605,0.461v-18.96
	c0-75.781-62.003-109.499-137.785-109.499h-1.066v354.783h1.066c74.292,0,135.334-59.593,137.704-133.336
	c1.515,0.311,3.081,0.474,4.684,0.474l0,0c12.875,0,23.409-10.533,23.409-23.409V247.51
	C422.864,234.635,412.33,224.101,399.456,224.101z"/>
<g>
	<path style="fill:#9C6BE8;" d="M280.454,394.43h-48.917c-12.231,29.051-60.667,27.647-60.667,27.647
		c23.303,18.04,52.48,28.811,84.055,28.811h2.142c31.575,0,60.753-10.771,84.056-28.811
		C341.121,422.075,292.685,423.479,280.454,394.43z"/>
	<path style="fill:#9C6BE8;" d="M284.696,329.843c-15.902-1.68-24.597,12.052-28.701,21.713c-4.104-9.661-12.8-23.392-28.701-21.713
		c-19.882,2.1-10.743,15.226-72.474,28.876c0,0,20.471,6.217,38.963,9.625c19.307,3.559,43.904,10.276,62.212-4.973
		c18.31,15.249,42.905,8.531,62.212,4.973c18.491-3.408,38.963-9.625,38.963-9.625C295.44,345.069,304.579,331.944,284.696,329.843z
		"/>
</g>
<path style="fill:#FF8736;" d="M306.453,233.732c-16.203,0-30.132,9.697-36.328,23.6h-28.259c-6.195-13.902-20.124-23.6-36.327-23.6
	c-21.96,0-39.763,17.803-39.763,39.762c0,21.96,17.803,39.763,39.763,39.763s39.762-17.803,39.762-39.763
	c0-1.154-0.06-2.292-0.157-3.421h21.702c-0.096,1.128-0.157,2.267-0.157,3.421c0,21.96,17.803,39.763,39.763,39.763
	s39.762-17.803,39.762-39.763C346.215,251.535,328.413,233.732,306.453,233.732z"/>
<path style="fill:#FF473E;" d="M266.846,270.073c-0.096,1.128-0.157,2.267-0.157,3.421c0,21.96,17.803,39.763,39.763,39.763
	c21.96,0,39.762-17.803,39.762-39.763s-17.802-39.762-39.762-39.762c-16.203,0-30.132,9.697-36.328,23.6h-14.125v12.741H266.846z"/>
<circle style="fill:#57555C;" cx="205.539" cy="273.498" r="30.081"/>
<circle style="fill:#29292B;" cx="306.454" cy="273.498" r="30.081"/>
<path style="fill:#9C6BE8;" d="M255.999,61.114c-92.502,0-138.861,56.572-138.861,89.445s0,153.662,0,153.662l28.363-87.915v35.929
	c98.208-50.456,110.496-87.152,110.496-87.152s12.29,36.695,110.496,87.152v-35.93l28.363,87.915c0,0,0-120.788,0-153.662
	C394.86,117.686,348.503,61.114,255.999,61.114z"/>
<g>
	<path style="fill:#885BC9;" d="M255.999,61.114v103.97c0,0,12.29,36.695,110.497,87.152v-35.93l28.363,87.915
		c0,0,0-120.788,0-153.662S348.503,61.114,255.999,61.114z"/>
	<path style="fill:#885BC9;" d="M318.208,368.345c18.491-3.408,38.964-9.625,38.964-9.625
		c-61.732-13.65-52.592-26.776-72.475-28.876c-15.896-1.679-24.59,12.041-28.697,21.701v11.831
		C274.309,378.621,298.902,371.903,318.208,368.345z"/>
	<path style="fill:#885BC9;" d="M257.066,450.886c31.575,0,60.752-10.771,84.055-28.811c0,0-48.436,1.403-60.667-27.647h-24.453
		v56.457L257.066,450.886L257.066,450.886z"/>
</g>
<rect x="117.142" y="157.819" style="fill:#D6954D;" width="277.228" height="49.691"/>
<rect x="255.735" y="157.819" style="fill:#B27F4D;" width="138.635" height="49.691"/>
<polygon style="fill:#FFC536;" points="169.164,176.237 198.021,199.646 226.88,176.237 255.74,199.646 284.602,176.237 
	313.463,199.646 342.327,176.236 371.193,199.645 394.371,180.849 394.371,170.301 371.193,189.097 342.327,165.688 
	313.463,189.096 284.602,165.687 255.74,189.096 226.88,165.687 198.021,189.096 169.164,165.687 140.31,189.096 117.14,170.301 
	117.14,180.85 140.31,199.646 "/>
<polygon style="fill:#FF8736;" points="371.193,189.097 342.327,165.688 313.463,189.096 284.602,165.687 255.74,189.096 
	255.74,199.646 284.602,176.237 313.463,199.646 342.327,176.236 371.193,199.645 394.371,180.849 394.371,170.301 "/>
<g>
</g>
<g>
</g>
<g>
</g>
<g>
</g>
<g>
</g>
<g>
</g>
<g>
</g>
<g>
</g>
<g>
</g>
<g>
</g>
<g>
</g>
<g>
</g>
<g>
</g>
<g>
</g>
<g>
</g>
</svg>
