<svg height="512pt" viewBox="0 0 512 512" width="512pt" xmlns="http://www.w3.org/2000/svg"><path d="m512 256c0 68.378906-26.628906 132.671875-74.980469 181.019531-48.347656 48.351563-112.640625 74.980469-181.019531 74.980469s-132.671875-26.628906-181.019531-74.980469c-48.351563-48.347656-74.980469-112.640625-74.980469-181.019531s26.628906-132.671875 74.980469-181.019531c48.347656-48.351563 112.640625-74.980469 181.019531-74.980469s132.671875 26.628906 181.019531 74.980469c48.351563 48.347656 74.980469 112.640625 74.980469 181.019531zm0 0" fill="#ffc473"/><path d="m512 256c0-10.628906-.644531-21.160156-1.914062-31.550781l-101.933594-101.929688-304.304688 266.960938 120.601563 120.605469c10.390625 1.269531 20.921875 1.914062 31.550781 1.914062 68.378906 0 132.671875-26.628906 181.019531-74.980469 48.351563-48.347656 74.980469-112.640625 74.980469-181.019531zm0 0" fill="#ffaa20"/><path d="m103.84375 122.519531h304.308594v266.960938h-304.308594zm0 0" fill="#80cef2"/><path d="m256 122.519531h152.152344v266.960938h-152.152344zm0 0" fill="#a3d9f6"/><path d="m326.863281 200.53125c0 16.597656-13.511719 30.109375-30.109375 30.109375-16.605468 0-30.109375-13.511719-30.109375-30.109375 0-16.605469 13.503907-30.109375 30.109375-30.109375 16.597656 0 30.109375 13.503906 30.109375 30.109375zm0 0" fill="#ffaa20"/><path d="m408.15625 332.953125v56.527344h-304.3125v-60.746094l99.890625-73.964844 52.265625 44.945313 41.699219 35.863281 57-43.21875zm0 0" fill="#00459f"/><path d="m408.15625 332.953125v56.527344h-152.15625v-89.765625l41.699219 35.863281 57-43.21875zm0 0" fill="#002d6b"/></svg>