<svg enable-background="new 0 0 140 140" height="512" viewBox="0 0 140 140" width="512" xmlns="http://www.w3.org/2000/svg"><circle cx="70" cy="70" fill="#4abba4" r="64"/><path d="m100.2949677 33.7032394h-60.5900879c-3.3199463 0-6 2.6796875-6 6v60.6000977c0 1.8295898.8200684 3.4697266 2.1201172 4.5698242l.0599365.0600586 28.8321533 28.8320236c1.7438965.1425781 3.5021973.2348633 5.282959.2348633 35.3461914 0 64-28.6542892 64-63.9999924 0-1.7895508-.0925293-3.5561523-.2365723-5.3081055l-29.0786133-29.0786133c-1.0899658-1.1704101-2.6499023-1.9101562-4.3898925-1.9101562z" opacity=".1"/><path d="m100.2983856 33.70158h-60.5969276c-3.3137207 0-6 2.6860352-6 6v60.5966759c0 3.3139648 2.6862793 6 6 6h60.5969276c3.3137207 0 6-2.6860352 6-6v-60.5966759c0-3.3139648-2.6862793-6-6-6z" fill="#ededed"/><path d="m33.701458 50.244488h72.596924v39.088009h-72.596924z" fill="#dd584d"/><circle cx="70" cy="69.788" fill="#304551" r="23.008"/><circle cx="70" cy="69.788" fill="#ededed" r="19.405"/><circle cx="70" cy="69.788" fill="#4da0dc" r="15.803"/><circle cx="70" cy="69.788" fill="#4288b9" r="8.374"/><circle cx="64.287" cy="64.075" fill="#ededed" r="2.661"/><circle cx="75.713" cy="75.502" fill="#ededed" r="1.347"/><path d="m52.133831 40.1418724h-8.887207c-1.1350098 0-2.0637207.9287109-2.0637207 2.0634766s.9287109 2.0634766 2.0637207 2.0634766h8.887207c1.1350098 0 2.0634766-.9287109 2.0634766-2.0634766s-.9284668-2.0634766-2.0634766-2.0634766z" fill="#fb7833"/></svg>